<svg xmlns="http://www.w3.org/2000/svg" width="100" height="59" viewBox="0 0 100 59">
  <metadata><?xpacket begin="﻿" id="W5M0MpCehiHzreSzNTczkc9d"?>
<x:xmpmeta xmlns:x="adobe:ns:meta/" x:xmptk="Adobe XMP Core 5.6-c142 79.160924, 2017/07/13-01:06:39        ">
   <rdf:RDF xmlns:rdf="http://www.w3.org/1999/02/22-rdf-syntax-ns#">
      <rdf:Description rdf:about=""/>
   </rdf:RDF>
</x:xmpmeta>
                                                                                                    
                                                                                                    
                                                                                                    
                                                                                                    
                                                                                                    
                                                                                                    
                                                                                                    
                                                                                                    
                                                                                                    
                                                                                                    
                                                                                                    
                                                                                                    
                                                                                                    
                                                                                                    
                                                                                                    
                                                                                                    
                                                                                                    
                                                                                                    
                                                                                                    
                                                                                                    
                           
<?xpacket end="w"?></metadata>
<defs>
    <style>
      .cls-1 {
        fill: #a67c52;
      }

      .cls-1, .cls-2, .cls-3, .cls-4, .cls-5 {
        fill-rule: evenodd;
      }

      .cls-2 {
        fill: none;
        stroke: #a67c52;
        stroke-width: 6.918px;
      }

      .cls-3 {
        fill: #310ee6;
      }

      .cls-4, .cls-5 {
        fill: #fff;
      }

      .cls-5 {
        stroke: blue;
        stroke-width: 1.033px;
      }
    </style>
  </defs>
  <path class="cls-1" d="M31.475,34.553c17.383,0,31.475,5.473,31.475,12.224S48.859,59,31.475,59,0,53.527,0,46.776,14.092,34.553,31.475,34.553Z"/>
  <path class="cls-2" d="M63.279,13.039c6.428,0,11.353,6.234,10.82,12.061C73.115,35.84,63.805,37.16,57.377,37.16s-4.59-8.981-4.59-14.832S56.851,13.039,63.279,13.039Z"/>
  <path id="DC" class="cls-3" d="M76.534,33.37q-3.268,5.262-3.309,14.593a94.688,94.688,0,0,0,.469,10.043q8.331-.717,13.068-0.985l12.3-.545a72.549,72.549,0,0,0,.487-9.241q0.041-9.31-3.5-14.445a10.828,10.828,0,0,0-9.382-5.006A11.186,11.186,0,0,0,76.534,33.37h0ZM93.2,39.161A8.714,8.714,0,0,1,94.552,43.8l-10.379-.355a8.693,8.693,0,0,1,.9-4.474,3.831,3.831,0,0,1,3.6-2.09A5.135,5.135,0,0,1,93.2,39.161h0ZM73.908,1.7A35.878,35.878,0,0,0,73.517,7.8Q73.479,16.555,77.2,21.536a10.992,10.992,0,0,0,9.185,4.695,11.756,11.756,0,0,0,10.024-5.365,20.272,20.272,0,0,0,3.579-12A23.617,23.617,0,0,0,99.3,2.5Q98,2.208,96.788,1.892q-1.819-.54-2.5-0.764A10.85,10.85,0,0,1,95.085,5.3,8.537,8.537,0,0,1,93.6,10.49a4.477,4.477,0,0,1-3.759,1.968,4.978,4.978,0,0,1-4.476-2.524A10.7,10.7,0,0,1,84,4.165a14.288,14.288,0,0,1,.3-3.124Z"/>
  <path class="cls-4" d="M31.148,39.768c10.321,0,23.935,3.3,23.935,7.171s-13.613,6.845-23.934,6.845-22.3-3.3-22.3-7.171S20.826,39.768,31.148,39.768Z"/>
  <path class="cls-1" d="M31.148,0c19.1,0,25.606,3.875,28.2,6.193,3.279,2.934,6.645,42.05-27.541,42.7C-4.677,48.9,3.279,9.453,3.607,7.171S12.044,0,31.148,0Z"/>
  <path class="cls-4" d="M31.475,2.608c13.852,0,24.918,3.423,24.918,6.356S45.66,15.431,31.809,15.638C18.01,15.844,4.6,12.263,6.23,8.964,7.845,5.693,17.623,2.608,31.475,2.608Z"/>
  <path class="cls-4" d="M-8.041-26.695a21.584,21.584,0,0,0,6.727-.922,18.934,18.934,0,0,0-6.1-2.9,19.253,19.253,0,0,0,5.725-3.175,20.857,20.857,0,0,0-6.945-.538,16.082,16.082,0,0,0,3.755-4.89,19.994,19.994,0,0,0-6.945,2.093A14.029,14.029,0,0,0-10.7-43.138a16.9,16.9,0,0,0-5.437,4.68,14.5,14.5,0,0,0-2.154-6.2,14.377,14.377,0,0,0-2.4,5.634,17.49,17.49,0,0,0-4.522-4.383,13.442,13.442,0,0,0,.443,5.987,20.546,20.546,0,0,0-6.19-2.445,14.784,14.784,0,0,0,3.208,5.327,21.851,21.851,0,0,0-6.811-.093,17.674,17.674,0,0,0,5.43,3.764,20.454,20.454,0,0,0-6.278,2.274,20.308,20.308,0,0,0,6.732,1.564,17.379,17.379,0,0,0-4.682,4.257,20.839,20.839,0,0,0,6.894-.9,14.714,14.714,0,0,0-2.293,5.518,18.855,18.855,0,0,0,5.889-3.213,14.057,14.057,0,0,0,.484,5.846A15.808,15.808,0,0,0-18.5-20.5a15.746,15.746,0,0,0,3.179,5.183,13.717,13.717,0,0,0,1.226-5.906,18.859,18.859,0,0,0,5.335,3.643A13.744,13.744,0,0,0-10.4-23.413a21.412,21.412,0,0,0,6.589,1.486A15.9,15.9,0,0,0-8.041-26.695Z"/>
  <path class="cls-5" d="M20.492,18.906l2.017,5.943,5.176-3.64-1.913,5.976L32.13,27.24l-5.112,3.727,5.112,3.727-6.358.054,1.913,5.977-5.176-3.639-2.017,5.943-2.017-5.943L13.3,40.724l1.913-5.977-6.358-.054,5.112-3.727L8.854,27.24l6.358-.054L13.3,21.21l5.176,3.64,2.017-5.943"/>
</svg>
